<svg width="353" height="353" viewBox="0 0 353 353" fill="none" xmlns="http://www.w3.org/2000/svg">
<rect x="7.5" y="7.5" width="169" height="169" rx="26.5" stroke="white" stroke-width="15"/>
<rect x="176.5" y="7.5" width="169" height="169" rx="26.5" stroke="white" stroke-width="15"/>
<rect x="176.5" y="176.5" width="169" height="169" rx="26.5" stroke="white" stroke-width="15"/>
<rect x="7.5" y="176.5" width="169" height="169" rx="26.5" stroke="white" stroke-width="15"/>
<path d="M86.4269 100.477H99.211L104.644 107.413L111.771 115.594L122.734 129.114H108.416L100.745 119.941L96.2068 113.421L86.4269 100.477ZM123.181 91.2727C123.181 98.4744 121.796 104.579 119.026 109.586C116.256 114.593 112.506 118.396 107.776 120.996C103.068 123.595 97.7835 124.895 91.9241 124.895C86.0434 124.895 80.7487 123.585 76.0399 120.964C71.3311 118.343 67.5917 114.54 64.8218 109.554C62.0732 104.547 60.699 98.4531 60.699 91.2727C60.699 84.071 62.0732 77.9666 64.8218 72.9595C67.5917 67.9524 71.3311 64.1491 76.0399 61.5497C80.7487 58.9503 86.0434 57.6506 91.9241 57.6506C97.7835 57.6506 103.068 58.9503 107.776 61.5497C112.506 64.1491 116.256 67.9524 119.026 72.9595C121.796 77.9666 123.181 84.071 123.181 91.2727ZM107.009 91.2727C107.009 87.0114 106.402 83.4105 105.188 80.4702C103.994 77.5298 102.269 75.3033 100.01 73.7905C97.7728 72.2777 95.0775 71.5213 91.9241 71.5213C88.792 71.5213 86.0967 72.2777 83.8382 73.7905C81.5796 75.3033 79.8431 77.5298 78.6286 80.4702C77.4355 83.4105 76.8389 87.0114 76.8389 91.2727C76.8389 95.5341 77.4355 99.1349 78.6286 102.075C79.8431 105.016 81.5796 107.242 83.8382 108.755C86.0967 110.268 88.792 111.024 91.9241 111.024C95.0775 111.024 97.7728 110.268 100.01 108.755C102.269 107.242 103.994 105.016 105.188 102.075C106.402 99.1349 107.009 95.5341 107.009 91.2727Z" fill="white"/>
<path d="M272.901 59.5455H288.69V101.765C288.69 106.644 287.528 110.895 285.206 114.517C282.883 118.118 279.645 120.909 275.49 122.891C271.335 124.851 266.509 125.831 261.012 125.831C255.451 125.831 250.593 124.851 246.438 122.891C242.283 120.909 239.055 118.118 236.754 114.517C234.453 110.895 233.302 106.644 233.302 101.765V59.5455H249.123V100.391C249.123 102.649 249.613 104.663 250.593 106.431C251.594 108.2 252.99 109.585 254.78 110.586C256.57 111.587 258.647 112.088 261.012 112.088C263.377 112.088 265.444 111.587 267.212 110.586C269.002 109.585 270.398 108.2 271.399 106.431C272.4 104.663 272.901 102.649 272.901 100.391V59.5455Z" fill="white"/>
<path d="M98.8982 227.545V293H83.0779V227.545H98.8982Z" fill="white"/>
<path d="M234.1 293V283.987L265.901 240.393H234.132V227.545H285.908V236.558L254.107 280.152H285.876V293H234.1Z" fill="white"/>
</svg>
